HIERARCHY
ROOT Hips
{
	OFFSET -0.001795 -0.223333 0.028219
	CHANNELS 6 Xposition Yposition Zposition Zrotation Yrotation Xrotation 
	JOINT LeftUpLeg
	{
		OFFSET 0.069520 -0.091406 -0.006815
		CHANNELS 3 Zrotation Yrotation Xrotation
		JOINT LeftLeg
		{
			OFFSET 0.034277 -0.375199 -0.004496
			CHANNELS 3 Zrotation Yrotation Xrotation
			JOINT LeftFoot
			{
				OFFSET -0.013596 -0.397961 -0.043693
				CHANNELS 3 Zrotation Yrotation Xrotation
				JOINT LeftToe
				{
					OFFSET 0.026358 -0.055791 0.119288
					CHANNELS 3 Zrotation Yrotation Xrotation
					End Site
					{
						OFFSET 0.000000 0.000000 0.000000
					}
				}
			}
		}
	}
	JOINT RightUpLeg
	{
		OFFSET -0.067670 -0.090522 -0.004320
		CHANNELS 3 Zrotation Yrotation Xrotation
		JOINT RightLeg
		{
			OFFSET -0.038290 -0.382569 -0.008850
			CHANNELS 3 Zrotation Yrotation Xrotation
			JOINT RightFoot
			{
				OFFSET 0.015774 -0.398415 -0.042312
				CHANNELS 3 Zrotation Yrotation Xrotation
				JOINT RightToe
				{
					OFFSET -0.025372 -0.048144 0.123348
					CHANNELS 3 Zrotation Yrotation Xrotation
					End Site
					{
						OFFSET 0.000000 0.000000 0.000000
					}
				}
			}
		}
	}
	JOINT Spine
	{
		OFFSET -0.002533 0.108963 -0.026696
		CHANNELS 3 Zrotation Yrotation Xrotation
		JOINT Spine1
		{
			OFFSET 0.005487 0.135180 0.001092
			CHANNELS 3 Zrotation Yrotation Xrotation
			JOINT Spine2
			{
				OFFSET 0.001457 0.052922 0.025425
				CHANNELS 3 Zrotation Yrotation Xrotation
				JOINT Neck
				{
					OFFSET -0.002778 0.213870 -0.042857
					CHANNELS 3 Zrotation Yrotation Xrotation
					JOINT Head
					{
						OFFSET 0.005152 0.064970 0.051349
						CHANNELS 3 Zrotation Yrotation Xrotation
						End Site
						{
							OFFSET 0.000000 0.000000 0.000000
						}
					}
				}
				JOINT LeftShoulder
				{
					OFFSET 0.078845 0.121749 -0.034090
					CHANNELS 3 Zrotation Yrotation Xrotation
					JOINT LeftArm
					{
						OFFSET 0.090977 0.030469 -0.008868
						CHANNELS 3 Zrotation Yrotation Xrotation
						JOINT LeftForeArm
						{
							OFFSET 0.259612 -0.012772 -0.027456
							CHANNELS 3 Zrotation Yrotation Xrotation
							JOINT LeftHand
							{
								OFFSET 0.249234 0.008986 -0.001171
								CHANNELS 3 Zrotation Yrotation Xrotation
								End Site
								{
									OFFSET 0.000000 0.000000 0.000000
								}
							}
						}
					}
				}
				JOINT RightShoulder
				{
					OFFSET -0.081759 0.118833 -0.038615
					CHANNELS 3 Zrotation Yrotation Xrotation
					JOINT RightArm
					{
						OFFSET -0.096012 0.032551 -0.009143
						CHANNELS 3 Zrotation Yrotation Xrotation
						JOINT RightForeArm
						{
							OFFSET -0.253742 -0.013329 -0.021401
							CHANNELS 3 Zrotation Yrotation Xrotation
							JOINT RightHand
							{
								OFFSET -0.255298 0.007772 -0.005559
								CHANNELS 3 Zrotation Yrotation Xrotation
								End Site
								{
									OFFSET 0.000000 0.000000 0.000000
								}
							}
						}
					}
				}
			}
		}
	}
}
MOTION
Frames: 11
Frame Time: 0.050000
-0.894870 0.774238 0.231721 -2.260283 48.365735 11.335022 49.339692 -4.002430 -45.560219 -33.487205 3.227751 18.410525 28.307120 43.211724 34.769249 0.000000 0.000000 0.000000 -7.693266 -14.455311 -55.413430 -9.670624 -5.292561 80.784458 -1.796195 -1.631413 -6.560122 0.000000 0.000000 0.000000 -24.099554 -3.431011 51.534582 8.462518 -0.547304 -23.479647 6.389991 19.323934 25.709109 -11.443325 8.739593 -49.535770 0.000000 0.000000 0.000000 -27.182782 -26.776338 -0.678808 -18.471842 -14.374559 1.288065 56.910077 -74.762008 -47.267005 0.000000 0.000000 0.000000 21.334891 25.639066 24.186326 18.330074 31.293038 -0.288514 -58.591373 72.049995 -36.769649 0.000000 0.000000 0.000000 
-0.918275 0.776991 0.231436 -0.243904 48.697502 12.328099 47.727566 -4.402491 -44.139295 -30.470712 2.143495 15.626205 26.568783 40.851930 37.376052 0.000000 0.000000 0.000000 -6.331065 -14.100530 -56.372708 -12.193781 -2.687216 81.136984 -0.641145 1.143859 -5.868105 0.000000 0.000000 0.000000 -24.438547 -3.710557 53.291109 8.960878 -0.613871 -24.269275 6.827715 20.272291 26.248904 -11.212446 8.619925 -50.074676 0.000000 0.000000 0.000000 -27.214172 -27.344284 -0.618391 -19.955969 -14.987051 1.551730 53.424793 -74.961760 -44.878058 0.000000 0.000000 0.000000 19.375189 25.699577 23.118776 17.502501 32.211843 -0.050541 -57.626775 72.356403 -35.942042 0.000000 0.000000 0.000000 
-0.940904 0.779851 0.233095 1.543411 50.125376 13.611928 46.551909 -5.038217 -43.293375 -28.222171 1.141932 12.301335 25.748395 39.746016 39.251502 0.000000 0.000000 0.000000 -5.414261 -14.220783 -56.596772 -13.821521 -1.621890 80.594859 -0.265661 2.400904 -6.483062 0.000000 0.000000 0.000000 -23.364192 -4.783310 54.686990 7.929592 -0.294397 -24.500260 7.462744 20.094065 25.836684 -10.477289 8.565592 -49.410089 0.000000 0.000000 0.000000 -27.847415 -27.360321 -0.952975 -20.708531 -15.337205 1.771795 46.237089 -75.064402 -38.939433 0.000000 0.000000 0.000000 18.011827 25.367282 22.160615 17.052593 31.514673 -0.027572 -58.717210 73.792762 -37.470462 0.000000 0.000000 0.000000 
-0.961997 0.783367 0.236777 4.191415 51.413481 14.747780 45.005160 -5.553699 -42.041446 -26.941545 0.365510 9.419221 23.803777 37.374729 41.815907 0.000000 0.000000 0.000000 -4.225097 -13.698228 -56.102123 -16.120967 -0.199709 79.533830 -0.312897 3.314085 -8.741191 0.000000 0.000000 0.000000 -22.963792 -5.671241 56.351951 8.118965 -0.283567 -24.938439 7.362042 21.028037 25.739990 -10.358161 8.733872 -49.014220 0.000000 0.000000 0.000000 -29.459809 -28.194648 -1.267153 -21.231059 -14.287434 1.911005 38.532262 -75.431295 -32.522357 0.000000 0.000000 0.000000 18.040911 25.579935 22.490946 16.662552 31.152811 -0.094923 -55.259656 74.091467 -35.117868 0.000000 0.000000 0.000000 
-0.981423 0.786929 0.241427 6.178914 52.374192 15.568903 44.215174 -5.856214 -41.532788 -26.376091 0.058347 8.492818 20.325662 34.849302 40.384637 0.000000 0.000000 0.000000 -4.148301 -13.444358 -54.795711 -16.973442 -0.200810 77.661236 -0.578957 3.567663 -11.182992 0.000000 0.000000 0.000000 -22.554066 -6.379625 57.537733 7.872549 -0.171215 -24.971284 7.786149 21.997918 25.087874 -9.768402 9.048970 -47.231877 0.000000 0.000000 0.000000 -30.404676 -27.719243 -2.311070 -21.706897 -13.454189 2.027900 23.019556 -75.970322 -20.125576 0.000000 0.000000 0.000000 18.181655 25.603322 22.747246 16.332696 30.166595 -0.214866 -47.061451 73.215908 -28.568966 0.000000 0.000000 0.000000 
-0.998818 0.790645 0.246217 7.876389 53.634991 17.012061 44.947543 -6.175792 -41.579875 -26.049033 -0.209340 6.956827 19.374627 33.501701 42.411843 0.000000 0.000000 0.000000 -2.953243 -12.965342 -54.682272 -18.445627 0.487175 76.736006 -0.634887 3.743276 -12.222815 0.000000 0.000000 0.000000 -21.093356 -7.234161 57.040188 8.008698 -0.221020 -24.377497 7.973651 21.728751 24.856356 -10.743921 9.379184 -46.448082 0.000000 0.000000 0.000000 -32.516235 -27.110540 -3.789548 -22.578189 -11.644184 2.089103 7.203458 -74.034874 -6.891013 0.000000 0.000000 0.000000 17.807768 26.128069 23.003974 14.990616 28.981926 -0.433431 -39.569020 70.113556 -22.046288 0.000000 0.000000 0.000000 
-1.014857 0.795503 0.250388 10.456181 53.636701 18.937058 44.403734 -6.347176 -40.111209 -24.977547 -0.351212 6.319284 17.866420 31.881801 42.965872 0.000000 0.000000 0.000000 -2.761346 -12.609056 -54.085302 -19.359270 1.085874 74.607695 -0.856369 3.921863 -14.625549 0.000000 0.000000 0.000000 -19.293100 -7.857231 56.582800 7.204054 0.055627 -24.063412 6.908621 22.292928 23.922658 -10.081915 9.486663 -45.137635 0.000000 0.000000 0.000000 -34.664765 -27.648243 -4.578347 -21.616210 -9.991909 2.033334 -4.642275 -72.968992 2.802132 0.000000 0.000000 0.000000 18.989509 25.373549 23.618151 14.676747 27.350006 -0.740624 -33.642530 66.481731 -17.111319 0.000000 0.000000 0.000000 
-1.029267 0.800781 0.252830 13.442268 54.386226 20.950372 41.728785 -6.556286 -38.872134 -25.751341 -0.161299 9.990270 19.314996 33.982694 36.531984 0.000000 0.000000 0.000000 -3.865176 -13.145935 -52.844936 -20.454474 1.415345 73.268652 -0.800652 4.249316 -15.555412 0.000000 0.000000 0.000000 -19.170952 -8.169404 56.608687 7.973818 -0.180406 -23.004719 6.122530 22.117042 23.465133 -9.629548 9.601439 -43.825798 0.000000 0.000000 0.000000 -36.721864 -26.450551 -6.404397 -21.360508 -8.925107 2.063320 -16.862281 -70.774436 12.035737 0.000000 0.000000 0.000000 18.216724 25.840009 23.489096 15.257453 26.570586 -0.663651 -26.743111 61.393839 -11.649710 0.000000 0.000000 0.000000 
-1.042556 0.806294 0.254255 15.594740 54.113564 22.935714 39.657561 -6.522325 -38.326593 -28.716021 0.349430 15.520751 21.633925 36.333918 33.443933 0.000000 0.000000 0.000000 -3.769696 -13.321557 -53.359010 -20.720414 1.914425 71.916554 -0.801561 3.953476 -15.449497 0.000000 0.000000 0.000000 -18.774587 -8.330924 56.766380 7.178683 0.165585 -24.365728 6.485073 21.112575 24.914777 -10.146626 9.906088 -43.187480 0.000000 0.000000 0.000000 -37.182405 -26.051940 -6.304366 -21.937988 -8.105385 1.849104 -20.660352 -68.774240 14.290876 0.000000 0.000000 0.000000 18.086043 25.340782 22.879148 14.766539 26.289863 -0.763697 -23.469653 56.036186 -9.042760 0.000000 0.000000 0.000000 
-1.054931 0.810821 0.255348 17.566027 54.673365 24.389753 36.217597 -6.597655 -37.264456 -30.871887 0.699795 22.092531 20.119357 35.791615 26.702541 0.000000 0.000000 0.000000 -4.340459 -14.260904 -53.581269 -20.051329 1.353039 71.080961 -0.559685 4.537042 -15.399735 0.000000 0.000000 0.000000 -18.523041 -8.836578 57.238631 5.709585 0.515964 -24.106740 6.141489 20.422379 24.363946 -8.785890 9.509772 -42.947745 0.000000 0.000000 0.000000 -37.103493 -26.505421 -5.543440 -21.641586 -6.542527 1.540780 -23.400866 -67.067961 15.789597 0.000000 0.000000 0.000000 17.970649 24.957653 22.463981 16.861025 25.699520 -0.609459 -21.965673 51.428874 -7.527257 0.000000 0.000000 0.000000 
-1.066711 0.812805 0.256499 17.912507 54.925085 24.682413 34.420520 -6.569304 -36.167734 -32.874880 1.092608 27.326674 20.269856 35.947913 24.147631 0.000000 0.000000 0.000000 -3.767399 -14.736856 -54.935802 -19.280645 1.083499 71.409284 -0.495982 4.248167 -14.210110 0.000000 0.000000 0.000000 -19.334122 -8.514107 56.995252 5.992454 0.410256 -23.991371 5.942308 19.832590 25.620257 -8.461198 9.419314 -43.068263 0.000000 0.000000 0.000000 -35.455130 -25.011417 -6.121944 -23.270789 -5.678231 1.318916 -24.947662 -64.930134 15.481503 0.000000 0.000000 0.000000 18.092816 25.351373 22.668134 16.825449 25.923467 -0.611377 -22.013605 47.433232 -7.122791 0.000000 0.000000 0.000000 
